<svg xmlns="http://www.w3.org/2000/svg" width="404.141" height="71.724" viewBox="0 0 404.141 71.724"><g transform="translate(-4156.086 -1628)"><path d="M4288.666,1681.157v-25.987h16.128v-12.157h-16.128V1628h-15.432v15.013h14.422v12.157h-14.422v25.255a51.352,51.352,0,0,1-27.1,7.42c-12.158,0-17.488-7.768-17.488-19.4,0-11.879,5.609-19.124,16.93-19.124a27.568,27.568,0,0,1,6.827.836v11.46h12.854V1641.69a65.067,65.067,0,0,0-21.319-3.971c-18.567,0-31.281,10.659-31.281,31.281,0,6.862,1.358,12.61,4.006,17.208h-7.977v-26.753c0-16.129-9.022-21.737-24.872-21.737a85.083,85.083,0,0,0-22.782,3.275v11.5a74.207,74.207,0,0,1,19.507-3.031c9.859,0,12.715,3.17,12.715,10.277v3.657h-9.684c-15.327,0-27.484,4.111-27.484,18.323,0,11.6,8.221,18.009,19.263,18.009a25.413,25.413,0,0,0,18.742-8.186v6.688h23.338l2.4-7.594c5.3,5.992,13.481,9.092,23.827,9.092,16.512,0,25.568-4.807,31.247-8.046,2.264,5.086,7.211,8.046,16.755,8.046a53.833,53.833,0,0,0,14.073-2.02v-11.356a28.1,28.1,0,0,1-9.162,1.5C4291.94,1687.845,4288.666,1686.766,4288.666,1681.157Zm-95.412,1.219c-3.135,3.309-7.524,6.445-13.237,6.445-6.688,0-8.465-4.11-8.465-7.8,0-5.991,4.633-8.047,12.68-8.047h9.022Z" fill="#ed282a"/><g transform="translate(4325.029 1628.044)"><path d="M4977.86,1693.8h7.852v-60.923h-7.852v-4.67h13.616V1662.8c4.77-4.474,10.633-7.555,16.795-7.555,7.553,0,12.324,4.672,12.324,13.717V1693.8h7.851v4.67h-21.467v-4.67h7.851v-24.151c0-5.665-2.086-9.541-8.049-9.541-5.863,0-11.23,3.677-15.3,7.353V1693.8h7.851v4.67H4977.86Z" transform="translate(-4977.86 -1628.212)" fill="#fff"/><path d="M5249,1781.855c0-13.813,8.646-22.162,20.671-22.162,12.125,0,20.771,8.349,20.771,22.162,0,13.915-8.646,22.162-20.771,22.162C5257.645,1804.017,5249,1795.77,5249,1781.855Zm35.48,0c0-10.633-5.566-17.39-14.809-17.39-9.142,0-14.807,6.758-14.807,17.39s5.666,17.492,14.807,17.492C5278.912,1799.347,5284.478,1792.491,5284.478,1781.855Z" transform="translate(-5193.257 -1732.663)" fill="#fff"/><path d="M5482.183,1794.635v-24.846h-7.95v-4.769h13.614v28.82c0,5.765,2.088,9.64,8.05,9.64,5.864,0,11.23-3.677,15.4-7.353v-26.338h-8.149v-4.769h13.814v37.467h7.951v4.67H5511.4V1800.8c-4.869,4.372-10.833,7.453-16.9,7.453C5486.953,1808.249,5482.183,1803.679,5482.183,1794.635Z" transform="translate(-5372.188 -1736.895)" fill="#fff"/><path d="M5748.274,1801.535V1791.2h4.87v6.758a41.691,41.691,0,0,0,10.334,1.492c6.063,0,10.933-1.988,10.933-6.857,0-10.933-25.343-5.665-25.343-21.169,0-7.155,5.366-11.728,15.5-11.728a49.346,49.346,0,0,1,13.515,2.187v10.335h-4.969v-6.857a38.665,38.665,0,0,0-8.546-1.092c-6.559,0-10.038,2.684-10.038,6.758,0,11.129,25.341,5.467,25.341,21.268,0,7.453-5.962,11.725-16.3,11.725A53.1,53.1,0,0,1,5748.274,1801.535Z" transform="translate(-5589.891 -1732.663)" fill="#fff"/><path d="M5938.7,1782.054c0-13.317,7.554-22.361,19.48-22.361,13.117,0,18.186,11.132,18.186,20.772a13.627,13.627,0,0,1-.2,2.783h-31.7c.4,9.938,5.964,16.1,15.6,16.1a27.206,27.206,0,0,0,14.212-4.272v4.967a29.316,29.316,0,0,1-14.708,3.975C5946.053,1804.017,5938.7,1795.075,5938.7,1782.054Zm5.864-3.18H5970.8c-.4-7.254-3.777-14.607-12.621-14.607C5950.129,1764.266,5945.358,1770.329,5944.562,1778.873Z" transform="translate(-5741.167 -1732.663)" fill="#fff"/></g></g></svg>