<svg xmlns="http://www.w3.org/2000/svg" width="521.601" height="248.424" viewBox="0 0 521.601 248.424">
  <g id="full-act-a" transform="translate(-312.051 -238.17)">
    <g id="act-a-color" transform="translate(312.051 272.744)">
      <path id="Path_23" data-name="Path 23" d="M.051-290.965c0-48.986,41.926-63.117,94.681-63.117h33.443V-366.8c0-24.493-9.9-35.328-43.8-35.328-24.5,0-51.816,5.653-67.358,10.362v-39.569c18.366-5.653,49.458-11.3,78.66-11.3,54.639,0,85.73,19.312,85.73,74.89v92.324H224.63l-13.083,41.453H131V-257.05c-13.185,13.659-33.915,28.262-64.528,28.262C28.312-228.788.051-250.924.051-290.965Zm128.123,2.357v-32.5H97.083c-27.789,0-43.8,7.065-43.8,27.789,0,12.719,6.126,26.85,29.207,26.85C102.27-266.472,117.339-277.307,128.174-288.608Z" transform="translate(-0.051 442.636)" fill="#ed282a"/>
    </g>
    <path id="act-c-color" d="M0-114.866C0-185.907,43.757-222.6,107.736-222.6c29.171,0,56.461,7.523,73.4,13.641v68.687H136.907v-39.515a97.528,97.528,0,0,0-23.525-2.827c-39.049,0-58.338,24.935-58.338,65.866,0,39.987,18.351,66.8,60.22,66.8,55.7,0,85.781-22.006,103.187-30.946v41.876c-19.289,10.822-50.757,30-111.653,30C40.46-9.012,0-46.18,0-114.866Z" transform="translate(511.3 495.348)" fill="#ddd2c0"/>
    <g id="act-t-color" transform="translate(721.197 238.17)">
      <path id="Path_21" data-name="Path 21" d="M0,186.743V94.025H49.868V51.976H0V0H53.392V51.976h55.757v42.05H53.392V183.9c0,19.371,11.342,23.152,27.407,23.152a98.2,98.2,0,0,0,31.655-5.2v39.217c-12.284,3.307-28.823,7.088-48.669,7.088C13.233,248.164,0,224.07,0,186.743Z" fill="#ddd2c0"/>
    </g>
  </g>
</svg>
