<svg xmlns="http://www.w3.org/2000/svg" width="94.864" height="95" viewBox="0 0 94.864 95"><g transform="translate(-993 -3055)"><ellipse cx="36" cy="36" rx="36" ry="36" transform="translate(993 3055)" fill="#f4f4f4"/><g transform="translate(1015.397 3077.533)"><path d="M486.2,176.175v-5.026a3.394,3.394,0,0,0-2.574-3.295l-6.485-1.621v-3.39l1.132-.863V152.4a3.4,3.4,0,0,0-3.4-3.4h-3.258a7.1,7.1,0,0,0-6.9,5.386l-.352,1.407h2.583v6.186l1.132.863v3.39l-6.487,1.621a3.394,3.394,0,0,0-2.571,3.295v5.026h-2.265v2.265h15.079a31.694,31.694,0,0,1-39.217,0H447.7v-2.265H445.44v-5.026a3.394,3.394,0,0,0-2.574-3.295l-6.485-1.621v-3.39l1.132-.863V152.4a3.4,3.4,0,0,0-3.4-3.4h-3.258a7.1,7.1,0,0,0-6.9,5.386l-.352,1.407h2.583v6.186l1.132.863v3.39l-6.487,1.621a3.394,3.394,0,0,0-2.571,3.295v5.026H416v2.265h13.161a33.914,33.914,0,0,0,46.145,0h13.161v-2.265Zm-53.218-20.381v-2.265h-6.229a4.841,4.841,0,0,1,4.1-2.265h3.258a1.133,1.133,0,0,1,1.132,1.132v8.462l-2.27,1.729h-2.253l-2.27-1.729v-5.065Zm-3.4,8.774.373.284h3.784l.373-.284v2.524c-.016.206-.2,1.157-2.265,1.157-2.085,0-2.252-.97-2.265-1.132v-2.549Zm-9.058,6.581a1.131,1.131,0,0,1,.857-1.1l6.292-1.573a3.9,3.9,0,0,0,3.041,1.942v4.623h2.265v-4.623a3.9,3.9,0,0,0,3.04-1.942l6.292,1.573a1.132,1.132,0,0,1,.858,1.1v5.026H440.91V173.91h-2.265v2.265H425.058V173.91h-2.265v2.265h-2.265Zm53.218-15.355v-2.265h-6.229a4.841,4.841,0,0,1,4.1-2.265h3.258a1.133,1.133,0,0,1,1.132,1.132v8.462l-2.27,1.729h-2.253l-2.27-1.729v-5.065Zm-3.4,8.774.372.284h3.784l.373-.284v2.524c-.016.206-.2,1.157-2.265,1.157-2.085,0-2.252-.97-2.265-1.132v-2.549Zm-9.058,6.581a1.131,1.131,0,0,1,.857-1.1l6.292-1.573a3.9,3.9,0,0,0,3.041,1.942v4.623h2.265v-4.623a3.9,3.9,0,0,0,3.04-1.942l6.292,1.573a1.132,1.132,0,0,1,.858,1.1v5.026h-2.265V173.91h-2.265v2.265H465.821V173.91h-2.265v2.265h-2.265Z" transform="translate(-416 -115.031)" fill="#282828"/><path d="M444.191,131.979l1.132.863v3.39l-6.487,1.621a3.394,3.394,0,0,0-2.571,3.295v5.026H434v2.265h31.7v-2.265H463.44v-5.026a3.394,3.394,0,0,0-2.574-3.295l-6.485-1.621v-3.39l1.132-.863V122.4a3.4,3.4,0,0,0-3.4-3.4h-3.258a7.1,7.1,0,0,0-6.9,5.386l-.352,1.407h2.583Zm16.984,9.169v5.026H458.91V143.91h-2.265v2.265H443.058V143.91h-2.265v2.265h-2.265v-5.026a1.131,1.131,0,0,1,.857-1.1l6.292-1.573a3.9,3.9,0,0,0,3.041,1.942v4.623h2.265v-4.623a3.9,3.9,0,0,0,3.04-1.942l6.292,1.573A1.132,1.132,0,0,1,461.175,141.149Zm-9.058-4.057c-.016.206-.2,1.157-2.265,1.157-2.085,0-2.252-.97-2.265-1.132v-2.549l.372.284h3.784l.372-.284Zm-3.258-15.827h3.258a1.133,1.133,0,0,1,1.132,1.132v8.462l-2.27,1.729h-2.253l-2.27-1.729v-5.065h4.529v-2.265h-6.229A4.841,4.841,0,0,1,448.859,121.265Z" transform="translate(-413.619 -119)" fill="#282828"/><path d="M426.188,130.885l-1.619-1.585a38.22,38.22,0,0,0-7.817,11.668l2.081.895A35.9,35.9,0,0,1,426.188,130.885Z" transform="translate(-415.901 -117.637)" fill="#ed282a"/><path d="M463.261,181.635l1.086,1.988a38.606,38.606,0,0,0,6.73-4.667l-1.482-1.712A36.281,36.281,0,0,1,463.261,181.635Z" transform="translate(-409.748 -111.295)" fill="#ed282a"/><path d="M473.165,129.566a38.119,38.119,0,0,0-11.667-7.8l-.892,2.082a35.846,35.846,0,0,1,10.979,7.344Z" transform="translate(-410.099 -118.635)" fill="#ed282a"/><path d="M419.312,166.1l2.176-.625a31.741,31.741,0,0,1,19.548-38.515l-.781-2.126A34,34,0,0,0,419.312,166.1Z" transform="translate(-415.735 -118.229)" fill="#282828"/><path d="M478.427,156.726a31.615,31.615,0,0,1-1.224,8.746l2.176.625a34,34,0,0,0-20.943-41.266l-.781,2.126A31.813,31.813,0,0,1,478.427,156.726Z" transform="translate(-410.489 -118.229)" fill="#282828"/></g></g></svg>