<svg xmlns="http://www.w3.org/2000/svg" width="115.604" height="95" viewBox="0 0 115.604 95"><g transform="translate(-1088 -3041)"><circle cx="36" cy="36" r="36" transform="translate(1088 3041)" fill="#f4f4f4"/><g transform="translate(1119.078 3060.159)"><g transform="translate(71.138 38.99)"><path d="M-1006.277,421.746h-9.136V419.1h9.136a1.607,1.607,0,0,0,1.6-1.607,1.606,1.606,0,0,0-1.6-1.606h-2.527l-.073-1.247a1.6,1.6,0,0,0-1.593-1.512h-4.695v-2.648h4.695a4.255,4.255,0,0,1,3.974,2.757h.22a4.26,4.26,0,0,1,4.253,4.255A4.261,4.261,0,0,1-1006.277,421.746Z" transform="translate(1015.414 -410.478)" fill="#ed282a"/></g><g transform="translate(10.791 32.491)"><rect width="2.649" height="37.035" fill="#282827"/></g><g transform="translate(69.503 32.491)"><rect width="2.649" height="37.035" fill="#282827"/></g><g transform="translate(5.294 67.933)"><path d="M-1041.484,434.183h-27.857v7.445h2.649v-4.8h25.208Z" transform="translate(1069.341 -434.183)" fill="#282827"/><path d="M-1032.9,434.183v2.649h25.205v4.8h2.649v-7.445Z" transform="translate(1077.394 -434.183)" fill="#282827"/></g><g transform="translate(31.827 36.315)"><path d="M-1028.323,421.653h-19.287V408.287h19.287ZM-1044.962,419h13.989v-8.068h-13.989Z" transform="translate(1047.61 -408.287)" fill="#282827"/></g><rect width="2.649" height="16.969" transform="translate(40.146 57.548)" fill="#282827"/><g transform="translate(31.827 57.912)"><path d="M-1039.532,426.182c-.09-.276-.215-.276-.305,0Z" transform="translate(1049.328 -425.975)" fill="#282827"/><path d="M-1034.929,426.182c-.09-.276-.214-.276-.305,0Z" transform="translate(1050.345 -425.975)" fill="#282827"/><path d="M-1044.14,426.182c-.09-.276-.215-.276-.305,0Z" transform="translate(1048.309 -425.975)" fill="#282827"/><path d="M-1030.973,427.4v13.542h-13.989V427.4a2.728,2.728,0,0,1-2.648.127V443.59h19.287V427.523A2.73,2.73,0,0,1-1030.973,427.4Z" transform="translate(1047.61 -425.661)" fill="#282827"/></g><path d="M-1031.82,429.373a4.126,4.126,0,0,1-5.62,0,4.135,4.135,0,0,1-5.626,0c-2.849,2.647-7.446.162-6.879-3.442l1.512-4.628h21.987l1.573,5.039A4.14,4.14,0,0,1-1031.82,429.373Zm1.325-3.03a1.487,1.487,0,0,0,2.962.177l-.839-2.568h-18.14l-.839,2.569a1.486,1.486,0,0,0,2.96-.178h2.648a1.489,1.489,0,0,0,2.978,0h2.648a1.487,1.487,0,0,0,2.973,0Z" transform="translate(1078.91 -369.095)" fill="#ed282a"/><g transform="translate(15.667 36.315)"><g transform="translate(40.659)"><g transform="translate(0 15.894)"><path d="M-1016.6,434.67h-10.944V421.3h10.944Zm-8.3-2.65h5.647v-8.068h-5.647Z" transform="translate(1027.545 -421.304)" fill="#282827"/></g><path d="M-1016.6,421.653h-10.944V408.287h10.944Zm-8.3-2.648h5.647v-8.068h-5.647Z" transform="translate(1027.545 -408.287)" fill="#282827"/></g><g transform="translate(0 15.894)"><path d="M-1049.9,434.67h-10.945V421.3h10.945Zm-8.3-2.65h5.647v-8.068h-5.647Z" transform="translate(1060.845 -421.304)" fill="#282827"/></g><path d="M-1049.9,421.653h-10.945V408.287h10.945Zm-8.3-2.648h5.647v-8.068h-5.647Z" transform="translate(1060.845 -408.287)" fill="#282827"/></g><path d="M-1063.58,397.772l1.41-2.649h-1.976a1.879,1.879,0,0,1-1.787-2.47c-1.973,0-5.122.429-5.122-2.471,0-3.106,3.5-2.472,6.991-2.472.187-3.1,2.453-2.325,17-2.325a2.463,2.463,0,0,1,2.454,2.325c1.42,0,4.667-.43,4.667,2.472a2.444,2.444,0,0,1-.388,1.317h2.846a5.107,5.107,0,0,0-5.3-6.438,5.114,5.114,0,0,0-4.278-2.326c-15.167,0-16.858-.684-18.821,2.326h-2.7c-6.646,0-7.073,10.24.4,10.24C-1067.234,397.148-1065.633,397.772-1063.58,397.772Z" transform="translate(1073.677 -377.633)" fill="#ed282a"/><path d="M-998.18,400.182l-5.3-9.962-.747-1.405H-1062.1c-1.423,2.675-4.9,9.217-6.785,12.754,2.356,3.57,2.633,3.987,3.268,4.947h.144v-3.665h.608l-.941-1.429,5.3-9.958h54.689l5.3,9.962-.944,1.425h.4v3.665h.354l.786-1.186,1.617-2.442.869-1.316Z" transform="translate(1074.737 -376.275)" fill="#282827"/><path d="M-1000.12,408h-67.052v-8.769h67.052Zm-64.4-2.648h61.754v-3.471h-61.754Z" transform="translate(1075.114 -373.974)" fill="#282827"/><g transform="translate(65.886)"><circle cx="1.324" cy="1.324" r="1.324" fill="#ed282a"/></g></g></g></svg>