<svg xmlns="http://www.w3.org/2000/svg" width="93.735" height="95" viewBox="0 0 93.735 95"><g transform="translate(-879 -3072.88)"><ellipse cx="36" cy="36" rx="36" ry="36" transform="translate(879 3072.88)" fill="#f4f4f4"/><g transform="translate(899.823 3095)"><path d="M303,403.6a4.487,4.487,0,0,0-2.093-2.214,4.374,4.374,0,0,1-1.041-.812,4.442,4.442,0,0,1-.46-1.263,3.508,3.508,0,0,0-4.394-3.212,4.566,4.566,0,0,1-1.36-.052,4.332,4.332,0,0,1-1.064-.727,3.576,3.576,0,0,0-5.552,0,4.337,4.337,0,0,1-1.067.728,4.584,4.584,0,0,1-1.357.051,4.363,4.363,0,0,0-2.951.555,4.426,4.426,0,0,0-1.443,2.658,4.516,4.516,0,0,1-.459,1.263,4.383,4.383,0,0,1-1.042.811,4.5,4.5,0,0,0-2.093,2.215,4.385,4.385,0,0,0,.384,2.95,2.583,2.583,0,0,1,0,2.689,4.385,4.385,0,0,0-.384,2.95,4.487,4.487,0,0,0,2.093,2.214,4.375,4.375,0,0,1,1.041.812,4.477,4.477,0,0,1,.46,1.263,4.43,4.43,0,0,0,1.442,2.658,4.371,4.371,0,0,0,2.952.555,4.527,4.527,0,0,1,1.36.052,4.363,4.363,0,0,1,1.064.727,3.576,3.576,0,0,0,5.552,0,4.369,4.369,0,0,1,1.067-.728,4.587,4.587,0,0,1,1.357-.051,3.509,3.509,0,0,0,4.394-3.212,4.481,4.481,0,0,1,.459-1.263,4.385,4.385,0,0,1,1.042-.811A4.5,4.5,0,0,0,303,412.191a4.385,4.385,0,0,0-.384-2.95,2.576,2.576,0,0,1,0-2.689A4.385,4.385,0,0,0,303,403.6Zm-2.55,6.463a3.229,3.229,0,0,1,.347,1.413c-.1.3-.658.664-1.15.983a4.524,4.524,0,0,0-2.478,3.421,3.129,3.129,0,0,1-.571,1.385,3.226,3.226,0,0,1-1.468.113,5.968,5.968,0,0,0-2.192.161,5.741,5.741,0,0,0-1.814,1.136c-.459.374-.979.8-1.311.8s-.852-.425-1.311-.8a5.739,5.739,0,0,0-1.812-1.135,4.481,4.481,0,0,0-1.4-.19c-.271,0-.538.014-.792.028a1.417,1.417,0,0,1-2.038-1.5,6.023,6.023,0,0,0-.823-2.027,5.958,5.958,0,0,0-1.655-1.394c-.493-.32-1.052-.682-1.15-.983a3.209,3.209,0,0,1,.346-1.413,4.71,4.71,0,0,0,0-4.338,3.209,3.209,0,0,1-.346-1.413c.1-.3.657-.664,1.15-.983a4.531,4.531,0,0,0,2.478-3.421,3.129,3.129,0,0,1,.571-1.385,3.19,3.19,0,0,1,1.468-.113,6.021,6.021,0,0,0,2.192-.161,5.754,5.754,0,0,0,1.814-1.136c.459-.374.979-.8,1.311-.8s.852.425,1.311.8a5.726,5.726,0,0,0,1.812,1.135,5.98,5.98,0,0,0,2.195.162,1.417,1.417,0,0,1,2.038,1.5,6.041,6.041,0,0,0,.822,2.027,5.978,5.978,0,0,0,1.656,1.394c.493.32,1.051.682,1.15.983a3.229,3.229,0,0,1-.347,1.413,4.709,4.709,0,0,0,0,4.338Z" transform="translate(-253.362 -373.232)" fill="#ed282a"/><path d="M289.106,399a8.106,8.106,0,1,0,8.106,8.106A8.116,8.116,0,0,0,289.106,399Zm0,13.9a5.79,5.79,0,1,1,5.79-5.79A5.8,5.8,0,0,1,289.106,412.9Z" transform="translate(-252.65 -372.441)" fill="#282828"/><rect width="23.161" height="2.316" transform="translate(24.875 52.036)" fill="#282828"/><rect width="23.161" height="2.316" transform="translate(24.875 56.668)" fill="#ed282a"/><rect width="13.897" height="2.316" transform="translate(29.508 61.3)" fill="#282828"/><path d="M318.377,421.144c.031,0,.173.009.4.009,1.278,0,5.268-.22,7.852-2.8,3.045-3.045,2.806-8.041,2.794-8.252l-.057-1.035-1.036-.057a12.985,12.985,0,0,0-6.765,1.637,29.3,29.3,0,0,0,.345-3.919l.586-.3c.189-.1,4.636-2.387,5.751-6.545s-1.59-8.367-1.707-8.544l-.566-.869-.925.468A13.054,13.054,0,0,0,320,395.757a29.008,29.008,0,0,0-1.662-3.568l.369-.565c.116-.176,2.821-4.384,1.706-8.544s-5.56-6.449-5.75-6.545l-.924-.469-.567.869a13.046,13.046,0,0,0-1.964,6.691c-.437-.353-.884-.7-1.343-1.027l-1.35,1.882a26.645,26.645,0,0,1,9.578,30.508l-.02.053a26.49,26.49,0,0,1-6.567,10.175V391.044H274.447v34.172a26.494,26.494,0,0,1-6.567-10.176l-.019-.049a26.645,26.645,0,0,1,9.577-30.511l-1.35-1.882c-.46.33-.907.674-1.343,1.027a13.03,13.03,0,0,0-1.965-6.691l-.566-.869-.925.469c-.189.1-4.636,2.387-5.75,6.545s1.591,8.368,1.707,8.544l.368.564a29.254,29.254,0,0,0-1.661,3.568,13.066,13.066,0,0,0-5.048-4.817l-.925-.468-.567.869c-.116.176-2.821,4.384-1.707,8.544s5.561,6.449,5.75,6.545l.587.3a29.3,29.3,0,0,0,.345,3.918,12.972,12.972,0,0,0-6.766-1.637l-1.035.057-.057,1.035c-.012.211-.25,5.209,2.794,8.252,2.584,2.584,6.574,2.8,7.852,2.8.227,0,.368-.007.4-.009l.643-.035a28.851,28.851,0,0,0,2.272,3.219,12.814,12.814,0,0,0-6.695,2.023l-.842.566.449.909c.1.193,2.387,4.74,6.549,5.887a7.979,7.979,0,0,0,2.095.27,10.3,10.3,0,0,0,2.4-.3v9.476a5.8,5.8,0,0,0,5.79,5.79h34.742a5.8,5.8,0,0,0,5.79-5.79v-5.79H311.5v-3.794a10.6,10.6,0,0,0,2.818.412,7.986,7.986,0,0,0,2.1-.271c4.157-1.146,6.447-5.693,6.543-5.886l.449-.909-.841-.566a12.574,12.574,0,0,0-7.129-2,28.986,28.986,0,0,0,2.289-3.24Zm8.705-9.795a7.157,7.157,0,0,1-7.454,7.452,7.151,7.151,0,0,1,7.454-7.452Zm-66.122,5.364a8.7,8.7,0,0,1-2.088-5.364,7.151,7.151,0,0,1,7.451,7.456A8.659,8.659,0,0,1,260.96,416.713Zm60.574-18.628a8.7,8.7,0,0,1,3.6-4.492,7.154,7.154,0,0,1-2.731,10.179A8.709,8.709,0,0,1,321.534,398.085Zm-6.958-18.9a7.155,7.155,0,0,1,2.726,10.18,7.149,7.149,0,0,1-2.726-10.18Zm-46.8,4.492a8.7,8.7,0,0,1,3.6-4.491,7.156,7.156,0,0,1-2.733,10.182A8.658,8.658,0,0,1,267.775,383.68Zm-7.833,15.6a8.707,8.707,0,0,1,.873-5.688,7.148,7.148,0,0,1,2.727,10.177A8.7,8.7,0,0,1,259.942,399.284Zm10.619,32.2a8.828,8.828,0,0,1-4.522-3.743,8.45,8.45,0,0,1,5.7-.911,6.642,6.642,0,0,1,2.7,1.6v2.86A7.223,7.223,0,0,1,270.561,431.481Zm9.676,15.15a3.478,3.478,0,0,1-3.474-3.474v-49.8h32.425v49.8a5.759,5.759,0,0,0,1.16,3.474Zm38.216-6.948v3.474a3.474,3.474,0,0,1-6.948,0v-3.474Zm1.874-11.941a8.82,8.82,0,0,1-4.516,3.738,7.535,7.535,0,0,1-4.306-.323v-2.5l.082.081a6.915,6.915,0,0,1,3.039-1.907A8.488,8.488,0,0,1,320.326,427.741Z" transform="translate(-256.52 -376.066)" fill="#282828"/></g></g></svg>