<svg xmlns="http://www.w3.org/2000/svg" width="16.151" height="14.806" viewBox="0 0 16.151 14.806"><path d="M4.226,2.346C6.4,2.347,7.573,4.7,8.076,5.732c.5-1.041,1.662-3.379,3.853-3.379a2.73,2.73,0,0,1,2.876,2.814c0,2.316-3.193,5.284-6.73,8.749-3.539-3.467-6.73-6.432-6.73-8.749A2.724,2.724,0,0,1,4.226,2.346ZM4.227,1A4.067,4.067,0,0,0,0,5.167C0,8.3,3.748,11.511,8.076,15.806c4.327-4.294,8.076-7.5,8.076-10.638a4.058,4.058,0,0,0-4.222-4.16A4.4,4.4,0,0,0,8.076,3.186,4.392,4.392,0,0,0,4.227,1Z" transform="translate(0 -1)" fill="#fff"/></svg>