<svg xmlns="http://www.w3.org/2000/svg" width="72.5" height="72.5" viewBox="0 0 72.5 72.5"><g transform="translate(1071.062 -296.804)"><path d="M-998.562,296.8h-72.5v58.906h12.461V369.3h2.266v-2.266h4.531v-2.266h-4.531v-2.266h6.8V360.24h-6.8v-2.266h4.531v-2.266h-4.531v-2.266h6.8v-2.266h-6.8v-2.266h4.531v-2.266h-4.531V344.38h6.8v-2.266h-6.8v-2.266h4.531v-2.266h-4.531v-2.266h6.8v-2.266h-6.8v-2.266h4.531v-2.266h-4.531v-2.266h6.8V323.99h-6.8v-2.266h4.531v-2.266h-4.531v-2.266h9.063V369.3h2.266V355.708h5.664V369.3h2.266l-.006-24.922h4.537V369.3h2.266l0-13.594h5.667V369.3h2.266V329.654h6.8V369.3h2.266V355.708h14.727Zm-2.266,2.266v6.8H-1068.8v-6.8Zm-33.984,31.719a3.4,3.4,0,0,1-3.4-3.4c0-1.96,1.979-5.7,3.4-8.062,1.418,2.366,3.4,6.1,3.4,8.062A3.4,3.4,0,0,1-1034.812,330.786Zm0,2.266a5.611,5.611,0,0,0,1.226-.143l.926,9.205h-4.3l.92-9.205A5.618,5.618,0,0,0-1034.812,333.052Zm13.683-7.93h4.351l.773,2.266h-5.9Zm.773-2.266,1.4-4.117,1.4,4.117Zm7.068,30.586v-25.11l-4.571-13.406h-2.187l-4.57,13.406v25.11h-5.667l0-9.062h.006v-2.266h-.108l-1.023-10.227a5.639,5.639,0,0,0,2.263-4.5c0-3.589-4.237-10.091-4.719-10.821l-.945-1.427-.945,1.427c-.484.73-4.719,7.232-4.719,10.821a5.638,5.638,0,0,0,2.262,4.5l-1.129,11.36v10.2h-5.664V314.927H-1058.6v38.516h-10.2V308.13h67.969v45.313Z" fill="#414141"/><rect width="45.313" height="2.266" transform="translate(-1048.406 301.333)" fill="#ffa726"/><rect width="2.266" height="2.266" transform="translate(-1066.531 301.333)" fill="#ffa726"/><rect width="2.266" height="2.266" transform="translate(-1062 301.333)" fill="#ffa726"/><rect width="2.266" height="2.266" transform="translate(-1057.469 301.333)" fill="#ffa726"/><rect width="13.594" height="2.266" transform="translate(-1016.688 310.395)" fill="#ffa726"/><rect width="9.063" height="2.266" transform="translate(-1012.156 314.927)" fill="#ffa726"/><rect width="4.531" height="2.266" transform="translate(-1007.625 319.458)" fill="#ffa726"/></g></svg>