<svg xmlns="http://www.w3.org/2000/svg" width="72.493" height="72.5" viewBox="0 0 72.493 72.5"><g transform="translate(-452.328 -1913.819)"><g transform="translate(452.329 1913.819)"><path d="M503.4,436.594h6.8v-6.8h3.4V423H500v6.8h3.4Zm-1.133-9.062v-2.266h9.062v2.266h-3.4v6.8h-2.265v-6.8Z" transform="translate(-495.469 -368.625)" fill="#ed282a"/><path d="M518.654,401H496v43.047h43.042V421.391H518.654Zm-2.265,2.266v16.9l-4.615-3.692-4.916,4.916h-.007l-5.188-9.081-3.4,5.948V403.266Zm-2.1,18.125h-4.231l1.88-1.881Zm-10.049,0h-5.158l2.579-4.513Zm12.146,20.391H498.265V423.656h18.123Zm20.388-18.125v18.125H518.654V423.656Z" transform="translate(-496 -371.547)" fill="#414141"/><path d="M508.531,414.063A4.531,4.531,0,1,0,504,409.531,4.536,4.536,0,0,0,508.531,414.063Zm0-6.8a2.266,2.266,0,1,1-2.265,2.266A2.269,2.269,0,0,1,508.531,407.266Z" transform="translate(-494.939 -371.016)" fill="#ed282a"/><rect width="13.592" height="2.266" transform="translate(24.919 55.508)" fill="#ed282a"/><rect width="13.592" height="2.266" transform="translate(24.919 60.039)" fill="#ed282a"/><rect width="6.796" height="2.266" transform="translate(24.919 64.57)" fill="#ed282a"/><rect width="2.265" height="2.266" transform="translate(56.635 63.438)" fill="#ed282a"/><rect width="2.265" height="2.266" transform="translate(65.696 28.32)" fill="#ed282a"/><path d="M567.165,404.453a5.67,5.67,0,0,0-5.664-5.664,5.588,5.588,0,0,0-2.767.753l-13.024-5.529.886-2.086-4.88-2.071-.8-6.491-12.039-5.111-.227.171V375H506v22.656h13.852l.179,1.453,12.038,5.111,5.223-3.936,4.878,2.072.886-2.087,12.952,5.5a5.617,5.617,0,0,0,1.063,2.166L550.7,433.076a5.653,5.653,0,0,0-3.922,5.362v6.8h-4.389V447.5h20.247v-2.266H558.1v-6.8a5.632,5.632,0,0,0-.962-3.151l6.5-25.595A5.665,5.665,0,0,0,567.165,404.453Zm-38.512-17.517,1.184-.892,4.136,1.756-.127,4.869-3.414,3.473-1.78-.756Zm-20.388,8.454V377.266h18.123v17.16l-.092-.04-.319-2.6-2.987-1.268V385.2a5.663,5.663,0,1,0-11.327,0v7.93h2.265v-3.4h4.949l.7,5.664Zm12.46-7.93h-6.8V385.2a3.4,3.4,0,1,1,6.8,0Zm11.024,14.162-9.631-4.088-.637-5.192,2.407,1.022.319,2.6,6.761,2.869,5.119-5.21.191-7.3-6.76-2.871-.865.653v-2.838l.545-.41,9.632,4.088.751,6.118-1.454,3.428-1.456,3.428Zm9.221-2.238-2.085-.885,1.327-3.128,1.328-3.128,2.084.885-2.654,6.254h0ZM553.1,432.84l5.911-23.327a5.6,5.6,0,0,0,2.192.573l-5.956,23.461A5.571,5.571,0,0,0,553.1,432.84Zm11.8-28.387a3.4,3.4,0,1,1-3.4-3.4A3.4,3.4,0,0,1,564.9,404.453ZM544.826,396.1l12.044,5.112a5.606,5.606,0,0,0-.909,2.075l-12.02-5.1Zm4.216,49.135v-6.8a3.4,3.4,0,1,1,6.8,0v6.8Z" transform="translate(-494.673 -375)" fill="#414141"/><path d="M539.514,384.954l2.25-.274-.59-4.841L536.5,377.85l-.887,2.084,3.476,1.478Z" transform="translate(-490.744 -374.622)" fill="#ed282a"/><path d="M533.432,400.751l-3.51,2.644-4.429-1.876-.883,2.086,5.63,2.385,4.554-3.43Z" transform="translate(-492.204 -371.58)" fill="#ed282a"/><rect width="2.265" height="9.063" transform="translate(6.796 6.797)" fill="#ed282a"/><rect width="2.265" height="11.328" transform="translate(2.265 9.063)" fill="#ed282a"/></g></g></svg>