<svg xmlns="http://www.w3.org/2000/svg" width="72.5" height="72.5" viewBox="0 0 72.5 72.5"><g transform="translate(-14.383 -12.681)"><g transform="translate(14.383 12.681)"><path d="M79.438,132.594v-3.4h6.8v-5.664H83.969v3.4H79.438V119h-6.8v.762L41.924,126.93H38.656v-3.4H36.391V129.2h4.531v16.992H38.656v2.266h2.266v2.409a4.539,4.539,0,0,0-3.4,4.387,4.453,4.453,0,0,0,.259,1.449l-14.139,7.614H22.8V184.7H61.313V164.312h-.847L46.327,156.7a4.453,4.453,0,0,0,.259-1.449H44.32a2.266,2.266,0,1,1-2.266-2.266h1.133v-4.531h2.266v-2.266H43.188V129.2H72.641v3.4H45.453v2.266H72.641v6.8H45.453v2.266H72.641v38.516H63.578v6.8H18.266V143.922H38.656v-2.266H18.266v-6.8H38.656v-2.266H16V191.5H88.5V132.594ZM59.047,182.437H25.063V166.578H59.047ZM42.055,159.781a4.5,4.5,0,0,0,3.023-1.18l10.609,5.712H28.422L39.031,158.6A4.5,4.5,0,0,0,42.055,159.781Zm44.18-24.922v6.8h-6.8v-6.8Zm-9.063-7.93H74.906v-5.37l1.262-.295h1Zm-25.278,0,20.746-4.84v4.84ZM74.906,129.2h2.266v53.242H74.906Zm11.328,60.039H65.844V184.7H86.235Zm-6.8-6.8V143.922h6.8v38.516Z" transform="translate(-16 -119)" fill="#414141"/><rect width="24.922" height="2.266" transform="translate(29.453 18.125)" fill="#78909c"/><rect width="2.266" height="2.266" transform="translate(4.531 18.125)" fill="#78909c"/><rect width="2.266" height="2.266" transform="translate(9.063 18.125)" fill="#78909c"/><rect width="2.266" height="2.266" transform="translate(13.594 18.125)" fill="#78909c"/><path d="M46.895,173.957l5.332-5.332-5.332-5.332-1.6,1.6,3.73,3.73-3.73,3.73Z" transform="translate(-12.109 -113.117)" fill="#78909c"/><path d="M33.52,172.355l-3.73-3.73,3.73-3.73-1.6-1.6-5.332,5.332,5.332,5.332Z" transform="translate(-14.594 -113.117)" fill="#78909c"/><rect width="11.328" height="2.265" transform="translate(21.749 59.359) rotate(-53.119)" fill="#78909c"/><path d="M22.266,147.531v-2.266h2.266V143H20v4.531Z" transform="translate(-15.469 -115.813)" fill="#414141"/></g></g></svg>