<svg xmlns="http://www.w3.org/2000/svg" width="34.513" height="39.166" viewBox="0 0 34.513 39.166"><g transform="translate(-59.396 -0.211)"><path d="M59.981,786.257H73.958a.215.215,0,0,0,.21-.22v-4.76a.215.215,0,0,1,.21-.22h5.276a.215.215,0,0,1,.21.22v4.76a.215.215,0,0,0,.21.22H94.031a.215.215,0,0,0,.21-.22v-8.282a.215.215,0,0,0-.21-.22H59.981a.215.215,0,0,0-.21.22v8.282A.215.215,0,0,0,59.981,786.257Z" transform="translate(-0.36 -746.88)" fill="#ed282a"/><path d="M60.2,403.309H94.249a.215.215,0,0,0,.21-.22v-8.275a.215.215,0,0,0-.21-.22H60.2a.215.215,0,0,0-.21.22v8.275A.215.215,0,0,0,60.2,403.309Z" transform="translate(-0.572 -378.937)" fill="#ed282a"/><path d="M76.558.234,59.52,8.849a.231.231,0,0,0,.1.436H93.69a.231.231,0,0,0,.1-.436L76.748.234A.21.21,0,0,0,76.558.234Z" fill="#ed282a"/></g></svg>